# xmcd
#
# Track frame offsets:
#	150
#	12160
#	22056
#	33776
#	43639
#	53232
#	63785
#	75106
#	84640
#	96786
#	107082
#	118158
#	130208
#	140876
#	152281
#	164233
#	173781
#	184471
#	195008
#	206499
#
# Disc length: 2890 seconds
#
# Revision: 1
# Processed by: cddbd v1.5.1PL0 Copyright (c) Steve Scherf et al.
# Submitted via: EasyCDDAExtractor 6.5.0.1
#
DISCID=050b4814
DTITLE=George Jones and Melba Montgomery - Vintage Collections
DYEAR=1996
DGENRE=Country
TTITLE0=We Must Have Been Out Of Our Minds
TTITLE1=I Dreamed My Baby Came Home
TTITLE2=Suppose Tonight Would Be Our Last
TTITLE3=Let's Invite Them Over
TTITLE4=Rollin' In My Sweet Baby's Arms
TTITLE5=Once More
TTITLE6=Flame In My Heart
TTITLE7=Dixieland For Me
TTITLE8=She's My Mother
TTITLE9=I Can't Get Over You
TTITLE10=Blue Moon Of Kentucky
TTITLE11=What's In Our Hearts
TTITLE12=Don't Go
TTITLE13=Please Be My Lover
TTITLE14=I Let You Go
TTITLE15=I'll Be There To Welcome You Home
TTITLE16=Multiply The Heartaches
TTITLE17=I'd Jump The Mississippi
TTITLE18=House Of Gold
TTITLE19=Wait A Little Longer
EXTD=
EXTT0=
EXTT1=
EXTT2=
EXTT3=
EXTT4=
EXTT5=
EXTT6=
EXTT7=
EXTT8=
EXTT9=
EXTT10=
EXTT11=
EXTT12=
EXTT13=
EXTT14=
EXTT15=
EXTT16=
EXTT17=
EXTT18=
EXTT19=
PLAYORDER=
